{
  "accessors": [
    {
      "bufferView": 2,
      "componentType": 5126,
      "count": 1244,
      "max": [
        0.20134800672531128,
        0.14114800095558167,
        0.8194090127944946
      ],
      "min": [
        -0.20152400434017181,
        -0.16010800004005432,
        0.13313299417495728
      ],
      "type": "VEC3"
    },
    {
      "bufferView": 2,
      "byteOffset": 14928,
      "componentType": 5126,
      "count": 1244,
      "max": [
        0.9997771382331848,
        0.9999407529830933,
        0.9927306175231934
      ],
      "min": [
        -0.9996806979179382,
        -0.9999668598175049,
        -0.9856934547424316
      ],
      "type": "VEC3"
    },
    {
      "bufferView": 3,
      "componentType": 5126,
      "count": 1244,
      "max": [
        0.9999843239784241,
        0.9966069459915161,
        0.9961110353469849,
        1.0
      ],
      "min": [
        -0.999993622303009,
        -0.9996317028999329,
        -0.985769510269165,
        1.0
      ],
      "type": "VEC4"
    },
    {
      "bufferView": 1,
      "componentType": 5126,
      "count": 1244,
      "max": [
        0.8725590109825134,
        1.9965399503707886
      ],
      "min": [
        0.0027660001069307327,
        1.011718988418579
      ],
      "type": "VEC2"
    },
    {
      "bufferView": 0,
      "componentType": 5125,
      "count": 6045,
      "type": "SCALAR"
    },
    {
      "bufferView": 2,
      "byteOffset": 29856,
      "componentType": 5126,
      "count": 2,
      "max": [
        0.09334500133991241,
        0.0877240002155304,
        0.7688369750976563
      ],
      "min": [
        0.08919700235128403,
        0.08729299902915955,
        0.7687749862670898
      ],
      "type": "VEC3"
    },
    {
      "bufferView": 1,
      "byteOffset": 9952,
      "componentType": 5126,
      "count": 2,
      "max": [
        0.0,
        0.0
      ],
      "min": [
        0.0,
        0.0
      ],
      "type": "VEC2"
    },
    {
      "bufferView": 0,
      "byteOffset": 24180,
      "componentType": 5125,
      "count": 2,
      "type": "SCALAR"
    },
    {
      "bufferView": 2,
      "byteOffset": 29880,
      "componentType": 5126,
      "count": 22870,
      "max": [
        0.12070900201797485,
        0.15573899447917938,
        1.098140001296997
      ],
      "min": [
        -0.12215100228786469,
        -0.13827699422836304,
        0.6834610104560852
      ],
      "type": "VEC3"
    },
    {
      "bufferView": 2,
      "byteOffset": 304320,
      "componentType": 5126,
      "count": 22870,
      "max": [
        0.9999957084655762,
        0.9997385144233704,
        0.99980229139328
      ],
      "min": [
        -0.9998176693916321,
        -0.9999897480010986,
        -0.9999454021453857
      ],
      "type": "VEC3"
    },
    {
      "bufferView": 1,
      "byteOffset": 9968,
      "componentType": 5126,
      "count": 22870,
      "max": [
        0.6591799855232239,
        0.9867039918899536
      ],
      "min": [
        0.00520299980416894,
        0.012577000074088573
      ],
      "type": "VEC2"
    },
    {
      "bufferView": 0,
      "byteOffset": 24188,
      "componentType": 5125,
      "count": 129396,
      "type": "SCALAR"
    },
    {
      "bufferView": 2,
      "byteOffset": 578760,
      "componentType": 5126,
      "count": 9239,
      "max": [
        0.8223620057106018,
        0.20071899890899658,
        0.806958019733429
      ],
      "min": [
        -0.8223620057106018,
        -0.3034619987010956,
        -0.17608900368213654
      ],
      "type": "VEC3"
    },
    {
      "bufferView": 2,
      "byteOffset": 689628,
      "componentType": 5126,
      "count": 9239,
      "max": [
        0.9999403953552246,
        0.9997991919517517,
        0.997705340385437
      ],
      "min": [
        -0.9999425411224365,
        -0.9998282790184021,
        -0.998659074306488
      ],
      "type": "VEC3"
    },
    {
      "bufferView": 3,
      "byteOffset": 19904,
      "componentType": 5126,
      "count": 9239,
      "max": [
        0.9999850392341614,
        0.9995150566101074,
        0.9999274015426636,
        1.0
      ],
      "min": [
        -0.9999864101409912,
        -0.9998421669006348,
        -0.99936443567276,
        -1.0
      ],
      "type": "VEC4"
    },
    {
      "bufferView": 1,
      "byteOffset": 192928,
      "componentType": 5126,
      "count": 9239,
      "max": [
        1.0,
        1.9950029850006104
      ],
      "min": [
        0.004313999786973,
        1.0043950080871582
      ],
      "type": "VEC2"
    },
    {
      "bufferView": 0,
      "byteOffset": 541772,
      "componentType": 5125,
      "count": 47883,
      "type": "SCALAR"
    },
    {
      "bufferView": 2,
      "byteOffset": 800496,
      "componentType": 5126,
      "count": 4161,
      "max": [
        0.3054260015487671,
        0.17527000606060028,
        0.3661920130252838
      ],
      "min": [
        -0.3054249882698059,
        -0.21949000656604767,
        -1.253067970275879
      ],
      "type": "VEC3"
    },
    {
      "bufferView": 2,
      "byteOffset": 850428,
      "componentType": 5126,
      "count": 4161,
      "max": [
        0.9999469518661499,
        0.9998992681503296,
        0.9971989393234253
      ],
      "min": [
        -0.999946117401123,
        -0.999997615814209,
        -0.9999997615814209
      ],
      "type": "VEC3"
    },
    {
      "bufferView": 1,
      "byteOffset": 266840,
      "componentType": 5126,
      "count": 4161,
      "max": [
        1.9951200485229492,
        1.9915920495986938
      ],
      "min": [
        1.0078099966049194,
        1.0043950080871582
      ],
      "type": "VEC2"
    },
    {
      "bufferView": 0,
      "byteOffset": 733304,
      "componentType": 5125,
      "count": 22128,
      "type": "SCALAR"
    }
  ],
  "asset": {
    "extras": {
      "author": "Nathang30 (https://sketchfab.com/Nathang30)",
      "license": "CC-BY-NC-SA-4.0 (http://creativecommons.org/licenses/by-nc-sa/4.0/)",
      "source": "https://sketchfab.com/3d-models/tony-stark-86c267264a2e4903b8c2bcc1b972cb74",
      "title": "Tony Stark"
    },
    "generator": "Sketchfab-12.68.0",
    "version": "2.0"
  },
  "bufferViews": [
    {
      "buffer": 0,
      "byteLength": 821816,
      "name": "floatBufferViews",
      "target": 34963
    },
    {
      "buffer": 0,
      "byteLength": 300128,
      "byteOffset": 821816,
      "byteStride": 8,
      "name": "floatBufferViews",
      "target": 34962
    },
    {
      "buffer": 0,
      "byteLength": 900360,
      "byteOffset": 1121944,
      "byteStride": 12,
      "name": "floatBufferViews",
      "target": 34962
    },
    {
      "buffer": 0,
      "byteLength": 167728,
      "byteOffset": 2022304,
      "byteStride": 16,
      "name": "floatBufferViews",
      "target": 34962
    }
  ],
  "buffers": [
    {
      "byteLength": 2190032,
      "uri": "scene.bin"
    }
  ],
  "images": [
    {
      "uri": "textures/24_shirt_0.3_0_0.001_baseColor.jpeg"
    },
    {
      "uri": "textures/24_shirt_0.3_0_0.001_normal.png"
    },
    {
      "uri": "textures/24_suit_0.4_0_0.001_baseColor.jpeg"
    },
    {
      "uri": "textures/24_suit_0.4_0_0.001_normal.png"
    },
    {
      "uri": "textures/24_trousers_0.4_0_0.001_baseColor.jpeg"
    },
    {
      "uri": "textures/material_0.004_baseColor.png"
    }
  ],
  "materials": [
    {
      "doubleSided": true,
      "name": "24_shirt_0.3_0_0.001",
      "normalTexture": {
        "index": 1
      },
      "pbrMetallicRoughness": {
        "baseColorTexture": {
          "index": 0
        },
        "metallicFactor": 0.0
      }
    },
    {
      "doubleSided": true,
      "name": "24_suit_0.4_0_0.001",
      "normalTexture": {
        "index": 3
      },
      "pbrMetallicRoughness": {
        "baseColorTexture": {
          "index": 2
        },
        "metallicFactor": 0.0
      }
    },
    {
      "doubleSided": true,
      "name": "24_trousers_0.4_0_0.001",
      "pbrMetallicRoughness": {
        "baseColorTexture": {
          "index": 4
        },
        "metallicFactor": 0.0
      }
    },
    {
      "doubleSided": true,
      "name": "material_0.004",
      "pbrMetallicRoughness": {
        "baseColorTexture": {
          "index": 5
        },
        "metallicFactor": 0.0
      }
    }
  ],
  "meshes": [
    {
      "name": "Object_0",
      "primitives": [
        {
          "attributes": {
            "NORMAL": 1,
            "POSITION": 0,
            "TANGENT": 2,
            "TEXCOORD_0": 3
          },
          "indices": 4,
          "material": 0,
          "mode": 4
        }
      ]
    },
    {
      "name": "Object_1",
      "primitives": [
        {
          "attributes": {
            "POSITION": 5,
            "TEXCOORD_0": 6
          },
          "indices": 7,
          "material": 3,
          "mode": 1
        }
      ]
    },
    {
      "name": "Object_2",
      "primitives": [
        {
          "attributes": {
            "NORMAL": 9,
            "POSITION": 8,
            "TEXCOORD_0": 10
          },
          "indices": 11,
          "material": 3,
          "mode": 4
        }
      ]
    },
    {
      "name": "Object_3",
      "primitives": [
        {
          "attributes": {
            "NORMAL": 13,
            "POSITION": 12,
            "TANGENT": 14,
            "TEXCOORD_0": 15
          },
          "indices": 16,
          "material": 1,
          "mode": 4
        }
      ]
    },
    {
      "name": "Object_4",
      "primitives": [
        {
          "attributes": {
            "NORMAL": 18,
            "POSITION": 17,
            "TEXCOORD_0": 19
          },
          "indices": 20,
          "material": 2,
          "mode": 4
        }
      ]
    }
  ],
  "nodes": [
    {
      "children": [
        1
      ],
      "matrix": [
        1.0,
        0.0,
        0.0,
        0.0,
        0.0,
        2.220446049250313e-16,
        -1.0,
        0.0,
        0.0,
        1.0,
        2.220446049250313e-16,
        0.0,
        0.0,
        0.0,
        0.0,
        1.0
      ],
      "name": "Sketchfab_model"
    },
    {
      "children": [
        2,
        3,
        4,
        5,
        6
      ],
      "name": "Tony Stark.obj.cleaner.materialmerger.gles"
    },
    {
      "mesh": 0,
      "name": "Object_2"
    },
    {
      "mesh": 1,
      "name": "Object_3"
    },
    {
      "mesh": 2,
      "name": "Object_4"
    },
    {
      "mesh": 3,
      "name": "Object_5"
    },
    {
      "mesh": 4,
      "name": "Object_6"
    }
  ],
  "samplers": [
    {
      "magFilter": 9729,
      "minFilter": 9987,
      "wrapS": 10497,
      "wrapT": 10497
    }
  ],
  "scene": 0,
  "scenes": [
    {
      "name": "Sketchfab_Scene",
      "nodes": [
        0
      ]
    }
  ],
  "textures": [
    {
      "sampler": 0,
      "source": 0
    },
    {
      "sampler": 0,
      "source": 1
    },
    {
      "sampler": 0,
      "source": 2
    },
    {
      "sampler": 0,
      "source": 3
    },
    {
      "sampler": 0,
      "source": 4
    },
    {
      "sampler": 0,
      "source": 5
    }
  ]
}
